<svg xmlns="http://www.w3.org/2000/svg" viewBox="0 0 207.19 56.39" width="207.19" height="56.39"><defs><style>.cls-1{fill:#231f20;}.cls-2{fill:none;}.cls-3{fill:#0a0a0a;}.cls-4{fill:#080808;}.cls-5{fill:#fdfdfd;}</style></defs><title>Asset 2</title><g id="Layer_2" data-name="Layer 2"><g id="Layer_1-2" data-name="Layer 1"><g id="EISzMF.tif"><path class="cls-1" d="M207.14,42.63c-.13-.31-.42-.34-.71-.36s-.71.14-.87-.17c-.34-.63-.88-.5-1.41-.53s-.95.16-1.3-.19a1.47,1.47,0,0,0-1.48-.43c-.26.06-.55,0-.53-.3a2.11,2.11,0,0,0-.69-1.56,19,19,0,0,1-1-1.81,19.29,19.29,0,0,1-1.67-3.22,4.29,4.29,0,0,0-2.67-2.39,7.38,7.38,0,0,0-2.2-.81.36.36,0,0,1-.26-.21,5.82,5.82,0,0,0-.8-1.48,21.49,21.49,0,0,0-1-1.92A4.09,4.09,0,0,1,190,25.8a.37.37,0,0,1,.38-.49,9.83,9.83,0,0,1,2.91.41,9,9,0,0,0,4.73.1.29.29,0,0,0,.12-.08,7.76,7.76,0,0,1,1.66-1.39.62.62,0,0,0,.29-.68,2,2,0,0,1,.88-1.8c.13-.12.27-.21.2-.41s-.23-.21-.4-.23a4.8,4.8,0,0,0-2.24,1.15.54.54,0,0,0-.07.2,1.63,1.63,0,0,1-.89,1.31c-.68.42-2.36.73-3,.3A3.48,3.48,0,0,0,192,23.7a17.72,17.72,0,0,1-2.69,0c-.24,0-.35-.11-.47-.33-.74-1.33-1.57-2.54-3.4-2.27-.48.07-.82-.07-.63-.68a.68.68,0,0,0-.22-.65,1.28,1.28,0,0,1,0-1.79,3.1,3.1,0,0,0,.19-2.4.55.55,0,0,0-.63-.44l-.1-.33c.19-.06.16-.19.1-.32a.17.17,0,0,0-.27-.07l0,0,0,0c.13-.28,0-.42-.27-.45a.55.55,0,0,1,0-.45c.28,0,.41-.18.32-.47l.18-.24c.52-.07.65-.37.54-.84a8.45,8.45,0,0,1-.23-2.1,2.74,2.74,0,0,0-.76-1.7.49.49,0,0,0-.7-.11.39.39,0,0,0,0,.66c.17.15.07.36.14.53a.09.09,0,0,1-.09,0c-.48.19-.54.6-.13,1.12a1.4,1.4,0,0,1,.27,1.44.88.88,0,0,0,0,.55l-.09.2c-.61,0-1.33,1.12-1,1.62s.39,1.17.83,1.61c.2.2,0,.65.48.68v.56c-.25-.06-.21.17-.31.29-.21.27-.44.66-.82.58-.87-.18-1.74-.39-2.15-1.37a1.23,1.23,0,0,0-1.37-.79,11,11,0,0,1-1.21,0c-.46,0-.58-.3-.32-.59a1.68,1.68,0,0,0,.31-1.33,4,4,0,0,1,.34-1.94c.23-.47.35-1,.57-1.41a4,4,0,0,0,.56-2.14.32.32,0,0,1,.12-.25c.5-.35.45-.91.54-1.4a2.44,2.44,0,0,1,.25-.8c.51-.92.39-2.06,1-3a6.27,6.27,0,0,0,.4-.91c.3-.69.93-1.24.93-2.06h-1.14a4.57,4.57,0,0,1-.75,1.68,15.51,15.51,0,0,0-1,2.34c-.33.84-1,1.6-.83,2.61,0,.09-.15.23-.25.33a.82.82,0,0,0-.23.57c-.07,1.11-.8,2-1,3.11a7.2,7.2,0,0,0-.44,1.57.45.45,0,0,1-.1.33c-.55.41-.43,1-.49,1.55a4.26,4.26,0,0,0,0,1.34.28.28,0,0,1-.16.35.19.19,0,0,1-.24-.1c-.55-1-1.61-1.45-2.43-2.14a13.62,13.62,0,0,0-1.71-1.22,4.29,4.29,0,0,1-1.14-.75,4.92,4.92,0,0,0-1.71-1.07c-.63-.32-1.24-.94-2.09-.73a.15.15,0,0,1-.12-.07c-.43-.64-1.11-.5-1.72-.58s-1.46.2-2.09-.4a.55.55,0,0,0-.72.11,1,1,0,0,0-.2.87c.06.35.34.33.6.35.47,0,.94.12,1.41.16s.8-.21,1,0c.71.8,2,.23,2.62,1.17.94,0,1.53.67,2.19,1.15s1.62,1.07,2.39,1.65c.44.33,1,.43,1.37.77s.71.73,1.1,1.06c.68.59.68,1.07-.06,1.58a2.62,2.62,0,0,0-.25.13,1.81,1.81,0,0,0-.73,1.67c.07.47.23.92.81,1,.09.27.21.53.54.59v.41a1.34,1.34,0,0,0-.72,1.58c.09.51-.11.57-.54.64-.91.14-1.82,0-2.73.1l0,0,0,0c-.09-.3-.23-.61-.55-.67a11.06,11.06,0,0,0-3.21.09,2.89,2.89,0,0,1-1.28,0,1.44,1.44,0,0,0-1.36,0c-.3.22-.49.3-.77,0a.39.39,0,0,0-.63,0,.45.45,0,0,0,.06.69c.26.17.34.43.49.66a1.35,1.35,0,0,0,2.16.31.94.94,0,0,1,.6-.15,13,13,0,0,1,1.7,0,15.14,15.14,0,0,1,2.21.26c1.48.43,2.86,1.25,4.49,1a.82.82,0,0,1,.21,0c.37,0,.51.28.23.5a1.49,1.49,0,0,0-.44,1.55,1.21,1.21,0,0,1-.8,1.39c-.24.13-.72.08-.67.57l-.15.14c-.22-.09-.32,0-.32.22l0,0c-.76,0-1.25.59-1.79,1s-1.11.48-1.12,1.21l-.14.14c-.47.08-.88.23-.89.81l0,0a2,2,0,0,0-1.2.68,2.35,2.35,0,0,1-2.56.51l-1.4-.52c-.2-.08-.4-.15-.6,0a.75.75,0,0,1-.79.16.32.32,0,0,0-.45.31c0,.28.06.47.38.47s.51-.1.57.15c.18.74.67.81,1.32.84.34,0,.66.31,1,.09.09-.05.21,0,.31.12a1,1,0,0,0,1.59-.22c.11-.14.29-.16.41-.26.47-.37,1.25-.3,1.55-.75a12.31,12.31,0,0,1,1.8-2.06c.86-.82,1.59-2,3.07-1.76.26,0,.45-.21.64-.39.4-.36,1.34-.38,1.39,0,.11.75.64,1.33.76,2a18.63,18.63,0,0,0,1.08,2.84,2.62,2.62,0,0,1-.09,2.64,1.24,1.24,0,0,0-.24.73c0,1.33,0,2.65,0,4,0,.25,0,.55.18.74a1.37,1.37,0,0,1,.44,1.08c.06,1.09.94,2,.75,3.15,0,.1.18.21.23.34a3.93,3.93,0,0,1,.31,3.1c-.4,1-1,1.9-1.47,2.85-.26.49,0,.67.46.75h0a.93.93,0,0,1-.55.58.3.3,0,0,0-.09.53.37.37,0,0,0,.57,0c.14-.15.17-.43.43-.43a1,1,0,0,0,1.06-.64c.15-.42.46-.79.39-1.27a.89.89,0,0,1,.27-.76,4.26,4.26,0,0,0,.83-3c0-1.26-.7-2.42-1.07-3.63a7.28,7.28,0,0,1-.48-4.21c0-.14.06-.3.23-.32s.23.14.28.26a24.5,24.5,0,0,0,1.74,3.13,10.46,10.46,0,0,0,5.91,4.33,14.42,14.42,0,0,1,2.64,1c1.13.62,1.93,0,2.77-.38a1.85,1.85,0,0,0,1-1.18,2.37,2.37,0,0,1,.51-1.14c.15-.18.4-.46,0-.69l.06-.21a1,1,0,0,0,.75-1,2.34,2.34,0,0,1,.25-1.3,3.17,3.17,0,0,0,.46-2.09c0-1.2,0-2.4,0-3.6a3.64,3.64,0,0,0-.83-1.78l-.09-.37c.42-.65-.09-.88-.51-1.16l-.12-.41c.35-.59.85,0,1.27-.17s.55.06.69.46a8.81,8.81,0,0,0,.89,1.86,9.43,9.43,0,0,1,.91,2c.39,1.1.55,2.26,2,2.35a.3.3,0,0,1,.18.1,2,2,0,0,0,1.62.55.81.81,0,0,1,.82.43,1.89,1.89,0,0,0,.93.74c.41.19,1,.32,1.31-.12.45-.71.87-.44,1.34-.13.16.11.32.29.45,0A1.15,1.15,0,0,0,207.14,42.63Z"/></g><path class="cls-2" d="M69.94,29.54l0,0s0,.08,0,.12Z"/><path class="cls-3" d="M36.26,20.16a16.69,16.69,0,0,0-11.83,2.7,27.68,27.68,0,0,0-2.69-1.51C12,17.19,1.34,21.69.38,31-.38,38.32.23,45.8.23,53.29a22.12,22.12,0,0,0,8-.2c0-6.33.07-12.62,0-18.92-.05-3.09.61-5.85,3.7-6.92s5.92-.21,8,3.55V53.46c3.09-.16,5.82.67,8.68-.65,0-6.42.09-12.74,0-19.05-.08-4.13,1.19-7,5.81-6.81s5.83,3,5.69,7.09c-.12,3.66-.1,7.33,0,11,.07,2.58-.73,5.38,1.49,7.61a8.37,8.37,0,0,0,6.57.45c0-6.74.17-13.54,0-20.32C47.91,24.85,44.14,21,36.26,20.16Z"/><path class="cls-4" d="M126,21.61c-2.55,6.31-3.09,13.47-5.49,21l-4.39-21.94h-8.64L102.67,43l-5-22.28a24.5,24.5,0,0,0-8.35.28l8.88,32.22a24.22,24.22,0,0,0,8.74-.09l4.54-21c3.23,6.9,3.28,14.37,5.92,21.38,2.82-.32,5.62.5,8.36-.59l8.73-32.18C131.19,20.48,128.73,20.12,126,21.61Z"/><path class="cls-3" d="M68.52,27.28a2.3,2.3,0,0,1,1.42,2,1.83,1.83,0,0,1,0,.23l0,0,0,.09a2.13,2.13,0,0,1-.62,1.11,2.71,2.71,0,0,1-1.6,1.3,10.53,10.53,0,0,1-3.66.89,26.67,26.67,0,0,0-9.12,2.33c-5.44,2.77-7,11-2.57,15.32,5.1,5,11.38,4,17.39,2.3,5.21-1.48,7.8-5.49,8.05-10.82.2-4.32.1-8.66.08-13,0-4-2.38-6.59-5.89-7.85a21.25,21.25,0,0,0-13.75-.39c-3.84,1.22-6.5,3.69-7.07,7.54C55.9,31.58,61,26.18,65.83,27M63.34,47a5.87,5.87,0,0,1-1.75.26c-2.43,0-4.41-1.42-4.41-3.18a2.67,2.67,0,0,1,1-2c.78-1.44,4-2.48,11.57-4.88C70.26,43.67,68.25,46.79,63.34,47Z"/><path class="cls-4" d="M85.64,11.4a11.09,11.09,0,0,0-5.49-.22V53.31c2.76.2,5.2.56,7.86-.32q0-18.48,0-36.88A5.26,5.26,0,0,0,85.64,11.4Z"/><path class="cls-4" d="M154.54,20.56c-11.13.78-16.38,4.55-17.24,13.31-.63,6.37-.12,12.85-.12,19.41h8c0-4.34,0-8.46,0-12.58,0-9.73.55-10.4,10.07-11.9C155.08,26.06,156.15,23.18,154.54,20.56Z"/><path class="cls-5" d="M69.28,30.74a2.6,2.6,0,0,1-.22.21A4.67,4.67,0,0,1,67.68,32,2.71,2.71,0,0,0,69.28,30.74Z"/><path class="cls-5" d="M69.63,29.45a2.7,2.7,0,0,1-.21,1,6,6,0,0,0,.47-.85s0-.08,0-.12l-.31-.35A2.66,2.66,0,0,1,69.63,29.45Z"/><path class="cls-5" d="M69.28,30.74a2.13,2.13,0,0,0,.62-1.11,6,6,0,0,1-.47.85A2.59,2.59,0,0,1,69.28,30.74Z"/><path class="cls-5" d="M69.43,30.48a5,5,0,0,1-.36.46,2.6,2.6,0,0,0,.22-.21A2.59,2.59,0,0,0,69.43,30.48Z"/></g></g></svg>